# xmcd
#
# Track frame offsets:
# 150
# 13865
# 28080
# 44147
# 59735
# 73950
# 89940
# 109147
# 126830
# 141800
# 160815
#
# Disc length: 2359 seconds
#
#
# Revision: 0
# Processed by: cddbd v1.5.1PL2 Copyright (c) Steve Scherf et al.
# Submitted via: FreeRIP 2.60 
#
DISCID=b009350b
DTITLE=Alabama - The Very Best Of Alabama [CD 1)
DYEAR=1991
DGENRE=Country
TTITLE0=High Cotton
TTITLE1=Old Flame
TTITLE2=The Closer You Get
TTITLE3=Fallin' Again
TTITLE4=Why Lady Why
TTITLE5=If I Had You
TTITLE6=You've Got The Touch
TTITLE7=There's A Fire In The Night
TTITLE8=Love In The First Degree
TTITLE9=There's No Way
TTITLE10=When We Make Love
EXTD=
EXTT0=
EXTT1=
EXTT2=
EXTT3=
EXTT4=
EXTT5=
EXTT6=
EXTT7=
EXTT8=
EXTT9=
EXTT10=
PLAYORDER=
